<?xml version="1.0" encoding="utf-8"?>
<!-- Uploaded to: SVG Repo, www.svgrepo.com, Generator: SVG Repo Mixer Tools -->
<svg fill="#000000" width="800px" height="800px" viewBox="0 0 32 32" version="1.1" xmlns="http://www.w3.org/2000/svg">
<title>balloon</title>
<path d="M27.215 10.995c-0.004-4.613-5.193-10.245-11.25-10.245-6.192 0-11.18 5.607-11.18 10.245-0.031 7.982 6.982 13.612 9.601 15.437l-1.505 3.010c-0.083 0.163-0.132 0.355-0.132 0.558 0 0.69 0.559 1.25 1.25 1.25h4c0.69-0.001 1.249-0.56 1.249-1.25 0-0.203-0.049-0.396-0.135-0.565l0.003 0.007-1.504-3.010c2.619-1.825 9.633-7.454 9.602-15.437zM16 24.504c-2.12-1.467-8.742-6.604-8.715-13.504 0.651-4.312 4.259-7.601 8.665-7.75l0.015-0c4.443 0.133 8.078 3.424 8.743 7.699l0.007 0.051v0.005c0.027 6.896-6.594 12.032-8.715 13.499zM12.918 4.896c-2.706 1.277-4.565 3.942-4.663 7.052l-0 0.012c-0 0.012-0.001 0.026-0.001 0.041 0 0.676 0.537 1.226 1.208 1.248l0.002 0 0.041 0.001c0.676-0 1.226-0.537 1.248-1.208l0-0.002c0.062-2.204 1.402-4.081 3.302-4.922l0.035-0.014c0.396-0.215 0.66-0.628 0.66-1.102 0-0.691-0.56-1.25-1.25-1.25-0.213 0-0.413 0.053-0.588 0.147l0.007-0.003z"></path>
</svg>